<svg xmlns="http://www.w3.org/2000/svg" viewBox="0 0 120.24 80.59"><defs><style>.cls-1{fill:#ed1c24;}.cls-2{fill:#005baa;}</style></defs><g id="Layer_2" data-name="Layer 2"><g id="Layer_1-2" data-name="Layer 1"><path class="cls-1" d="M86.74,37.13s-5,1.45-14.65,7.38C63.42,49.84,60,53.43,60,53.43L33.31,35S44.55,26.69,53.94,33l12.6,8.65,1.54-1L33.31,16.3s5-1.45,14.65-7.38C56.63,3.58,60,0,60,0L86.75,18.47S75.51,26.74,66.11,20.4l-12.6-8.64-1.53,1Z"/><polygon class="cls-2" points="66.05 62.33 45.71 62.33 45.71 66.85 55.53 66.85 45.36 76.34 45.36 80.13 66.01 80.13 66.01 75.59 55.74 75.59 66.05 66.12 66.05 62.33"/><path class="cls-2" d="M33.73,80.59c8.14,0,10.22-2.08,10.22-6.66V62.33H37.51V73.24c0,1.83-1.57,2.92-3.78,2.92s-3.77-1.1-3.77-3V62.33H23.52v11.6C23.52,78.51,25.6,80.59,33.73,80.59Z"/><path class="cls-2" d="M77.86,80.59c8.13,0,10.21-2.08,10.21-6.66V62.33H81.63V73.24c0,1.83-1.57,2.92-3.77,2.92s-3.78-1.1-3.78-3V62.33H67.64v11.6C67.64,78.51,69.72,80.59,77.86,80.59Z"/><rect class="cls-2" x="113.52" y="62.33" width="6.72" height="17.81"/><polygon class="cls-2" points="112.5 62.33 103.66 62.33 96.5 68.47 96.5 62.33 89.78 62.33 89.78 80.13 96.5 80.13 96.5 73.82 103.15 80.13 112.18 80.13 102.35 71 112.5 62.33"/><path class="cls-2" d="M7.64,67.25c0-1.38,2-1.43,2.72-1.43a3.92,3.92,0,0,1,3.31,2h7.6c0-3.36-3.19-6-10.88-6-8.55,0-10,3.75-10,5.91,0,4,3.08,5.14,9.77,5.85.58.06,4.06-.11,4.06,1.57,0,1.24-2,1.32-2.68,1.32a3.39,3.39,0,0,1-3.16-2.08H0c0,3.9,2.64,6.16,11.52,6.16,8.18,0,10.35-3.33,10.35-5.87s-1.7-5-8.67-5.87C10.29,68.43,7.64,68.27,7.64,67.25Z"/></g></g></svg>