<?xml version="1.0" encoding="utf-8"?>
<!-- Generator: Adobe Illustrator 24.3.0, SVG Export Plug-In . SVG Version: 6.00 Build 0)  -->
<svg version="" id="Layer_1" xmlns="http://www.w3.org/2000/svg" xmlns:xlink="http://www.w3.org/1999/xlink" x="0px" y="0px"
	 viewBox="0 0 200 159"  xml:space="preserve">
<style type="text/css">
	.st0{fill:#ED1C24;}
	.st1{fill:#005BAA;}
</style>
	<path class="st0" d="M130.63,103.39c0,0-5,1.44-14.66,7.38c-8.67,5.33-12.06,8.92-12.06,8.92l-26.72-18.47
		c0,0,11.24-8.27,20.64-1.94l12.6,8.64l1.54-1.01L77.2,82.56c0,0,5-1.45,14.66-7.38c8.67-5.33,12.06-8.92,12.06-8.92l26.72,18.47
		c0,0-11.24,8.27-20.63,1.93l-12.6-8.64l-1.54,1.01L130.63,103.39z"/>
		<polygon class="st1" points="109.93,128.59 89.6,128.59 89.6,133.11 99.42,133.11 89.25,142.61 89.25,146.39 109.9,146.39 
			109.9,141.85 99.62,141.85 109.93,132.38 		"/>
		<path class="st1" d="M77.62,146.85c8.14,0,10.22-2.08,10.22-6.66v-11.61h-6.44v10.91c0,1.83-1.57,2.92-3.77,2.92
			c-2.29,0-3.77-1.1-3.77-2.95v-10.88h-6.45v11.61C67.41,144.77,69.49,146.85,77.62,146.85z"/>
		<path class="st1" d="M121.74,146.85c8.13,0,10.22-2.08,10.22-6.66v-11.61h-6.45v10.91c0,1.83-1.57,2.92-3.77,2.92
			c-2.3,0-3.77-1.1-3.77-2.95v-10.88h-6.44v11.61C111.53,144.77,113.61,146.85,121.74,146.85z"/>
		<rect x="157.41" y="128.59" class="st1" width="6.72" height="17.81"/>
		<polygon class="st1" points="156.39,128.59 147.54,128.59 140.39,134.73 140.39,128.59 133.67,128.59 133.67,146.39 
			140.39,146.39 140.39,140.08 147.03,146.39 156.06,146.39 146.24,137.26 		"/>
		<path class="st1" d="M51.52,133.51c0-1.38,2.04-1.42,2.73-1.42c0.69,0,2.25,0.28,3.3,2.01h7.6c0-3.36-3.18-6.02-10.88-6.02
			c-8.55,0-10.01,3.75-10.01,5.9c0,3.98,3.08,5.14,9.77,5.85c0.57,0.06,4.05-0.11,4.05,1.57c0,1.24-1.96,1.32-2.68,1.32
			c-0.72,0-2.06-0.12-3.16-2.09h-8.37c0,3.91,2.64,6.17,11.52,6.17c8.18,0,10.35-3.34,10.35-5.88c0-2.46-1.69-4.97-8.67-5.86
			C54.18,134.69,51.52,134.53,51.52,133.51z"/>
</svg>
